<svg width="22" height="21" viewBox="0 0 22 21" fill="none" xmlns="http://www.w3.org/2000/svg">
<path d="M20.66 0H1.34C0.875375 0 0.5 0.375375 0.5 0.84V20.16C0.5 20.6246 0.875375 21 1.34 21H20.66C21.1246 21 21.5 20.6246 21.5 20.16V0.84C21.5 0.375375 21.1246 0 20.66 0ZM18.2345 6.12937H16.5571C15.242 6.12937 14.9874 6.75412 14.9874 7.67287V9.69675H18.1269L17.7174 12.8651H14.9874V21H11.714V12.8678H8.97612V9.69675H11.714V7.3605C11.714 4.64887 13.3704 3.171 15.7906 3.171C16.9509 3.171 17.9457 3.25763 18.2371 3.297V6.12937H18.2345Z" fill="#295C7A"/>
</svg>
