<svg width="21" height="21" viewBox="0 0 21 21" fill="none" xmlns="http://www.w3.org/2000/svg">
<path d="M10.4973 5.11248C7.65795 5.11248 5.36644 7.51861 5.36644 10.5C5.36644 13.4814 7.65795 15.8875 10.4973 15.8875C13.3367 15.8875 15.6282 13.4814 15.6282 10.5C15.6282 7.51861 13.3367 5.11248 10.4973 5.11248ZM10.4973 14.0015C8.66111 14.0015 7.16262 12.4281 7.16262 10.5C7.16262 8.57195 8.66111 6.99851 10.4973 6.99851C12.3335 6.99851 13.832 8.57195 13.832 10.5C13.832 12.4281 12.3335 14.0015 10.4973 14.0015ZM15.8383 3.63624C15.1754 3.63624 14.64 4.19837 14.64 4.89446C14.64 5.59056 15.1754 6.15269 15.8383 6.15269C16.5013 6.15269 17.0366 5.59318 17.0366 4.89446C17.0368 4.72917 17.0059 4.56546 16.9458 4.41272C16.8856 4.25997 16.7974 4.12118 16.6861 4.0043C16.5748 3.88742 16.4426 3.79475 16.2971 3.73159C16.1516 3.66843 15.9957 3.63603 15.8383 3.63624ZM20.4989 10.5C20.4989 9.05002 20.5114 7.61317 20.4338 6.16582C20.3563 4.48469 19.9911 2.99268 18.8203 1.76335C17.647 0.53139 16.2286 0.150507 14.6275 0.0690774C13.2466 -0.0123526 11.8782 0.000781319 10.4998 0.000781319C9.11891 0.000781319 7.75051 -0.0123526 6.3721 0.0690774C4.77105 0.150507 3.35012 0.534016 2.17935 1.76335C1.00608 2.9953 0.643338 4.48469 0.565787 6.16582C0.488236 7.6158 0.500744 9.05265 0.500744 10.5C0.500744 11.9474 0.488236 13.3868 0.565787 14.8342C0.643338 16.5153 1.00858 18.0073 2.17935 19.2367C3.35262 20.4686 4.77105 20.8495 6.3721 20.9309C7.75301 21.0124 9.12141 20.9992 10.4998 20.9992C11.8807 20.9992 13.2491 21.0124 14.6275 20.9309C16.2286 20.8495 17.6495 20.466 18.8203 19.2367C19.9936 18.0047 20.3563 16.5153 20.4338 14.8342C20.5139 13.3868 20.4989 11.95 20.4989 10.5ZM18.2974 16.6939C18.1148 17.172 17.8947 17.5292 17.5419 17.897C17.1892 18.2674 16.8515 18.4985 16.3962 18.6903C15.0803 19.2393 11.9558 19.1158 10.4973 19.1158C9.03885 19.1158 5.9118 19.2393 4.59593 18.6929C4.14064 18.5012 3.80041 18.27 3.45018 17.8996C3.09745 17.5292 2.87731 17.1746 2.69469 16.6966C2.17434 15.3123 2.29192 12.0314 2.29192 10.5C2.29192 8.96859 2.17434 5.68512 2.69469 4.30344C2.87731 3.82537 3.09745 3.46812 3.45018 3.10038C3.80291 2.73263 4.14064 2.49884 4.59593 2.30709C5.9118 1.76072 9.03885 1.88418 10.4973 1.88418C11.9558 1.88418 15.0828 1.76072 16.3987 2.30709C16.854 2.49884 17.1942 2.73 17.5444 3.10038C17.8972 3.47075 18.1173 3.82537 18.2999 4.30344C18.8203 5.68512 18.7027 8.96859 18.7027 10.5C18.7027 12.0314 18.8203 15.3123 18.2974 16.6939Z" fill="#295C7A"/>
</svg>
