<svg width="22" height="17" viewBox="0 0 22 17" fill="none" xmlns="http://www.w3.org/2000/svg">
<path d="M21.5 2.01939C20.7277 2.35134 19.8873 2.59025 19.0217 2.68329C19.9204 2.15125 20.5934 1.31072 20.9145 0.319389C20.0711 0.819302 19.1473 1.16985 18.1838 1.35548C17.7811 0.926526 17.2941 0.5848 16.7531 0.351597C16.2121 0.118394 15.6287 -0.00128703 15.0392 1.04374e-05C12.6543 1.04374e-05 10.7363 1.92634 10.7363 4.29024C10.7363 4.6222 10.7767 4.95415 10.8423 5.27353C7.27118 5.08743 4.08623 3.38743 1.96881 0.784625C1.583 1.44128 1.38082 2.18895 1.38331 2.94986C1.38331 4.43862 2.14295 5.75134 3.30135 6.52338C2.61869 6.49659 1.95201 6.30962 1.35555 5.97767V6.03048C1.35555 8.11524 2.83446 9.8429 4.80549 10.2402C4.43541 10.336 4.0547 10.385 3.67234 10.3861C3.3922 10.3861 3.12721 10.3584 2.85969 10.3207C3.40482 12.0207 4.99225 13.2555 6.88253 13.2957C5.40362 14.45 3.5512 15.129 1.53978 15.129C1.17888 15.129 0.845752 15.1164 0.5 15.0762C2.40794 16.2959 4.67173 17 7.10966 17C15.0241 17 19.3548 10.4666 19.3548 4.79572C19.3548 4.60962 19.3548 4.42353 19.3422 4.23743C20.1801 3.62634 20.9145 2.86939 21.5 2.01939Z" fill="#295C7A"/>
</svg>
